<svg width="1000" height="1000" viewBox="0 0 1000 1000" fill="none" xmlns="http://www.w3.org/2000/svg">
<g clip-path="url(#clip0_2_190)">
<path d="M395.36 241.98L616.75 370.84C652.53 391.66 674.56 429.92 674.62 471.31L675.25 906.39L940.49 757.41V325.27C940.49 283.73 918.36 245.34 882.42 224.51L655.43 93L395.36 241.98Z" fill="#090B17"/>
<path d="M621.13 757.41L399.73 628.55C363.95 607.73 341.92 569.47 341.86 528.08L341.24 93L76 241.98V674.12C76 715.66 98.13 754.05 134.07 774.88L361.06 906.4L621.13 757.41ZM2246.82 574.94C2246.82 721.82 2140.56 828.83 1999.86 828.83C1859.16 828.83 1752.9 721.83 1752.9 574.94C1752.9 427.09 1859.16 321.05 1999.86 321.05C2140.56 321.06 2246.82 427.09 2246.82 574.94ZM2119.51 574.94C2119.51 484.48 2062.07 438.75 1999.86 438.75C1937.65 438.75 1880.21 484.48 1880.21 574.94C1880.21 664.43 1937.65 711.13 1999.86 711.13C2062.07 711.13 2119.51 665.4 2119.51 574.94ZM2795.58 574.94C2795.58 721.82 2689.32 828.83 2548.62 828.83C2407.92 828.83 2301.66 721.83 2301.66 574.94C2301.66 427.09 2407.92 321.05 2548.62 321.05C2689.32 321.05 2795.58 427.09 2795.58 574.94ZM2668.27 574.94C2668.27 484.48 2610.83 438.75 2548.62 438.75C2486.41 438.75 2428.97 484.48 2428.97 574.94C2428.97 664.43 2486.41 711.13 2548.62 711.13C2610.83 711.13 2668.27 665.4 2668.27 574.94ZM1273.64 815.19V170.55H1408.14V686.53H1716.12V815.19H1273.64ZM3136.64 537.43L3332.55 815.19H3173.68L3046.97 631.97L2993.37 688.49V815.2H2863.74V170.55H2993.37V514.02L3159.05 335.67H3328.64L3136.64 537.43ZM3480.8 539.37L3598.74 521.83C3626.03 517.94 3634.79 504.29 3634.79 487.73C3634.79 453.61 3608.48 425.35 3553.9 425.35C3497.37 425.35 3466.19 442.99 3462.28 484.9L3345.13 486.42C3352.93 411.37 3424.27 321.05 3552.91 321.05C3704.95 321.05 3761.49 406.81 3761.49 503.3V739.17C3761.49 764.51 3764.41 798.61 3767.33 815.18H3648.44C3645.5 802.51 3643.57 776.19 3643.57 757.68C3619.2 795.69 3573.4 828.82 3502.24 828.82C3399.9 828.82 3337.53 759.63 3337.53 684.59C3337.53 598.82 3400.88 551.07 3480.8 539.37ZM3634.79 621.24V599.8L3526.61 616.36C3493.48 621.23 3467.15 639.76 3467.15 676.8C3467.15 705.06 3487.61 732.35 3529.53 732.35C3584.12 732.35 3634.79 706.03 3634.79 621.24Z" fill="#090B17"/>
</g>
<defs>
<clipPath id="clip0_2_190">
<rect width="1000" height="1000" fill="white"/>
</clipPath>
</defs>
</svg>
